<svg width="25" height="27" viewBox="0 0 25 27" fill="none" xmlns="http://www.w3.org/2000/svg">
<path d="M10.3027 15.082C10.3027 16.3905 11.2885 17.4551 12.5 17.4551C13.7115 17.4551 14.6973 16.3905 14.6973 15.082C14.6973 13.7736 13.7115 12.709 12.5 12.709C11.2885 12.709 10.3027 13.7736 10.3027 15.082Z" fill="#024F6C"/>
<path d="M12.5 19.0371C10.0767 19.0371 8.10547 21.1661 8.10547 23.7832V27H16.8945V23.7832C16.8945 21.1661 14.9233 19.0371 12.5 19.0371Z" fill="#024F6C"/>
<path d="M6.64062 16.6641C6.64062 15.3556 5.65491 14.291 4.44336 14.291C3.23181 14.291 2.24609 15.3556 2.24609 16.6641C2.24609 17.9725 3.23181 19.0371 4.44336 19.0371C5.65491 19.0371 6.64062 17.9725 6.64062 16.6641Z" fill="#024F6C"/>
<path d="M22.7539 16.6641C22.7539 15.3556 21.7682 14.291 20.5566 14.291C19.3451 14.291 18.3594 15.3556 18.3594 16.6641C18.3594 17.9725 19.3451 19.0371 20.5566 19.0371C21.7682 19.0371 22.7539 17.9725 22.7539 16.6641Z" fill="#024F6C"/>
<path d="M3.71094 0L2.59666 2.83715L0 3.23266L1.87283 5.15396L1.44215 7.96289L3.71094 6.68223L5.97973 7.96289L5.54905 5.15396L7.37305 3.23266L4.85249 2.83715L3.71094 0Z" fill="#024F6C"/>
<path d="M13.6415 2.83715L12.5 0L11.3857 2.83715L8.83789 3.23266L10.6619 5.15396L10.2312 7.96289L12.5 6.68223L14.7688 7.96289L14.3381 5.15396L16.1621 3.23266L13.6415 2.83715Z" fill="#024F6C"/>
<path d="M21.2891 0L20.1748 2.83715L17.627 3.23266L19.451 5.15396L19.0203 7.96289L21.2891 6.68223L23.5579 7.96289L23.1272 5.15396L25 3.23266L22.4306 2.83715L21.2891 0Z" fill="#024F6C"/>
<path d="M20.5566 20.6191C19.5831 20.6191 18.6922 20.972 17.964 21.5504C18.2091 22.2473 18.3594 22.9947 18.3594 23.7832V27H25V25.3652C25 22.744 22.9837 20.6191 20.5566 20.6191Z" fill="#024F6C"/>
<path d="M0 25.3652V27H6.64062V23.7832C6.64062 22.9947 6.79092 22.2473 7.03602 21.5504C6.30779 20.972 5.41687 20.6191 4.44336 20.6191C2.01626 20.6191 0 22.744 0 25.3652Z" fill="#024F6C"/>
</svg>
