<svg width="68" height="68" viewBox="0 0 68 68" fill="none" xmlns="http://www.w3.org/2000/svg">
<path d="M1.32812 61.903H12.75C13.4834 61.903 14.0781 61.3084 14.0781 60.5749V59.2769C18.3716 59.4732 21.2155 60.6104 24.2099 61.8081C27.5914 63.1608 31.088 64.5593 36.6562 64.5593C39.1023 64.5593 42.7326 63.7368 47.4466 62.1146C48.1403 61.8759 48.509 61.1202 48.2703 60.4267C48.0315 59.733 47.2755 59.3642 46.5823 59.603C42.147 61.1291 38.8074 61.903 36.6562 61.903C31.5995 61.903 28.4893 60.659 25.1964 59.3417C22.0922 58.1001 18.8898 56.8204 14.0781 56.6188V43.1249C14.9295 42.9045 15.7872 42.5143 16.6773 42.108C19.2953 40.9132 22.2626 39.5587 26.3297 41.8463L32.7411 45.4533C33.3359 45.7884 34.012 45.9655 34.6959 45.9655H43.2969C44.7615 45.9655 45.9531 47.1571 45.9531 48.6218C45.9531 49.7095 45.2725 50.7043 44.255 51.0985C43.9508 51.2176 43.6285 51.278 43.2969 51.278H29.7952C29.0618 51.278 28.467 51.8726 28.467 52.6062C28.467 53.3397 29.0618 53.9343 29.7952 53.9343H43.2969C43.9427 53.9343 44.5731 53.8181 45.1677 53.5924C45.1783 53.5888 45.1891 53.5863 45.1997 53.5823C45.1997 53.5823 61.7193 47.4757 61.7262 47.473C62.0326 47.354 62.356 47.2935 62.6875 47.2935C64.1522 47.2935 65.3438 48.4851 65.3438 49.9498C65.3438 50.9716 64.7468 51.9149 63.8258 52.3513C63.5986 52.4609 63.371 52.5712 62.9315 52.7805L62.5472 52.0121C62.2192 51.356 61.4209 51.0901 60.7654 51.4181C60.1093 51.7462 59.8435 52.544 60.1714 53.2001L60.5241 53.9057C59.6547 54.3047 58.6665 54.7508 57.5859 55.2263C56.9145 55.5218 56.6097 56.3055 56.9054 56.9769C57.2013 57.6493 57.9855 57.9524 58.656 57.6575C61.2687 56.5077 62.9976 55.6921 64.9602 54.7533C66.8068 53.8782 68 51.9928 68 49.9499C68 47.0206 65.6168 44.6374 62.6875 44.6374C62.0295 44.6374 61.3862 44.7569 60.7751 44.9929L48.5308 49.5191C48.5819 49.2254 48.6094 48.9255 48.6094 48.6218C48.6094 45.6925 46.2262 43.3093 43.2969 43.3093H34.6959C34.4678 43.3093 34.2426 43.2504 34.0442 43.1386L27.632 39.5313C22.3881 36.5818 18.4499 38.3793 15.5745 39.6915C14.444 40.2074 13.4679 40.653 12.75 40.653H1.32812C0.594734 40.653 0 41.2476 0 41.9812V60.5749C0 61.3084 0.594734 61.903 1.32812 61.903ZM2.65625 43.3093H11.4219V59.2468H2.65625V43.3093Z" fill="#024F6C"/>
<path d="M43.9105 37.7783C44.1322 37.924 44.3863 37.9969 44.6406 37.9969C44.8948 37.9969 45.1491 37.924 45.3705 37.7783C64.8524 24.9604 65.4943 15.4762 64.1428 10.9636C62.6638 6.02456 57.888 3.44043 53.9348 3.44043C49.2653 3.44043 46.1791 6.10903 44.6407 7.88779C43.1025 6.10903 40.0166 3.44043 35.3478 3.44043C31.3991 3.44043 26.6263 6.02895 25.1447 10.9765C23.794 15.486 24.4361 24.9646 43.9105 37.7783ZM27.6891 11.7386C28.7865 8.07413 32.4541 6.09681 35.3477 6.09681C40.6447 6.09681 43.3757 10.5782 43.496 10.7802C43.7347 11.1857 44.17 11.4345 44.6406 11.4345C45.1125 11.4345 45.5488 11.1842 45.787 10.777C45.8144 10.7301 48.5866 6.09681 53.9348 6.09681C56.8327 6.09681 60.5033 8.06961 61.5982 11.7257C62.5035 14.7488 62.625 23.0224 44.6406 35.0748C26.6635 23.0267 26.7845 14.7592 27.6891 11.7386Z" fill="#024F6C"/>
<path d="M39.3125 22.0596H43.2969V26.0439C43.2969 26.7775 43.8916 27.3721 44.625 27.3721C45.3584 27.3721 45.9531 26.7775 45.9531 26.0439V22.0596H49.9375C50.6709 22.0596 51.2656 21.465 51.2656 20.7314C51.2656 19.9979 50.6709 19.4033 49.9375 19.4033H45.9531V15.4189C45.9531 14.6854 45.3584 14.0908 44.625 14.0908C43.8916 14.0908 43.2969 14.6854 43.2969 15.4189V19.4033H39.3125C38.5791 19.4033 37.9844 19.9979 37.9844 20.7314C37.9844 21.465 38.5791 22.0596 39.3125 22.0596Z" fill="#024F6C"/>
<path d="M52.5938 60.0439C53.3273 60.0439 53.9219 59.4493 53.9219 58.7158C53.9219 57.9823 53.3273 57.3877 52.5938 57.3877C51.8602 57.3877 51.2656 57.9823 51.2656 58.7158C51.2656 59.4493 51.8602 60.0439 52.5938 60.0439Z" fill="#024F6C"/>
</svg>
