<svg width="55" height="55" viewBox="0 0 55 55" fill="none" xmlns="http://www.w3.org/2000/svg">
<path d="M43.2717 11.3867C43.2717 7.64887 40.8257 1.71875 34.2622 1.71875C31.5655 1.71875 29.2971 2.99009 27.5 5.50312C25.703 2.99009 23.4344 1.71875 20.7378 1.71875C14.1742 1.71875 11.7283 7.64887 11.7283 11.3867C11.7283 17.8313 16.758 21.8625 23.6293 27.7382C24.6389 28.6014 25.683 29.4942 26.7961 30.4599C26.998 30.6351 27.249 30.7227 27.5 30.7227C27.7511 30.7227 28.002 30.6351 28.2039 30.4599C29.3171 29.4942 30.3611 28.6014 31.3707 27.7382C38.5644 21.5869 43.2717 17.6951 43.2717 11.3867ZM27.5 28.2279C26.6416 27.4871 25.8229 26.787 25.0255 26.1051C17.8367 19.9581 13.8768 16.572 13.8768 11.3867C13.8768 7.8694 16.1779 3.86719 20.7378 3.86719C23.1175 3.86719 25.0211 5.23359 26.5575 8.04439C26.7458 8.389 27.1073 8.60342 27.5 8.60342C27.8927 8.60342 28.2542 8.389 28.4425 8.04439C29.9789 5.23359 31.8825 3.86719 34.2622 3.86719C38.7585 3.86719 41.1233 7.81 41.1233 11.3867C41.1233 16.572 37.1634 19.9581 29.9745 26.1052C29.1771 26.787 28.3584 27.4871 27.5 28.2279Z" fill="white"/>
<path d="M7.71912 43.8404L12.8906 46.4257V52.207C12.8906 52.8002 13.3717 53.2812 13.9648 53.2812H25.3516C25.9447 53.2812 26.4258 52.8002 26.4258 52.207V38.1831C26.4258 34.8919 23.9569 32.1626 20.6911 31.8352L20.6032 31.8258C18.7129 31.6363 15.3658 30.3433 14.0442 29.0218L11.6317 26.6103C10.82 25.7987 9.74112 25.3516 8.59375 25.3516V16.7578C8.59375 14.3885 6.66617 12.4609 4.29688 12.4609C1.92758 12.4609 0 14.3885 0 16.7578V31.35C0 36.6367 2.98611 41.4733 7.71912 43.8404ZM2.14844 16.7578C2.14844 15.5732 3.11223 14.6094 4.29688 14.6094C5.48152 14.6094 6.44531 15.5732 6.44531 16.7578V25.9275C5.1352 26.685 4.29688 28.0974 4.29688 29.6484C4.29688 30.7958 4.74397 31.8746 5.55575 32.6863L11.0568 38.1885C11.4762 38.6081 12.1564 38.6081 12.576 38.1886C12.9955 37.7692 12.9956 37.089 12.5761 36.6694L7.07502 31.1672C6.66886 30.7612 6.44531 30.2219 6.44531 29.6484C6.44531 28.7392 7.02077 27.925 7.87746 27.6224L7.87789 27.6221C7.87811 27.622 7.87843 27.622 7.87864 27.6219C8.61964 27.359 9.49856 27.5156 10.1127 28.1298L12.5252 30.5413C15.0159 33.032 20.4575 33.9692 20.4684 33.9722C22.6398 34.1898 24.2772 36.0002 24.2772 38.1831V51.1328H15.039V45.7617C15.039 45.3548 14.809 44.9828 14.4451 44.8009L8.6799 41.9188C4.65126 39.9039 2.14844 35.8542 2.14844 31.35V16.7578Z" fill="white"/>
<path d="M49.3066 42.3242C49.8999 42.3242 50.3809 41.8433 50.3809 41.25C50.3809 40.6567 49.8999 40.1758 49.3066 40.1758C48.7134 40.1758 48.2324 40.6567 48.2324 41.25C48.2324 41.8433 48.7134 42.3242 49.3066 42.3242Z" fill="white"/>
<path d="M50.7031 12.4609C48.3338 12.4609 46.4062 14.3885 46.4062 16.7578V25.3516C45.2589 25.3516 44.18 25.7987 43.3685 26.6103L40.9556 29.0221C39.6342 30.3435 36.2871 31.6364 34.3884 31.8266L34.3173 31.8344C31.0431 32.1626 28.5742 34.892 28.5742 38.1831V52.207C28.5742 52.8002 29.0553 53.2812 29.6484 53.2812H41.0352C41.6283 53.2812 42.1094 52.8002 42.1094 52.207V46.4257L45.6253 44.6681C46.1559 44.4027 46.371 43.7576 46.1058 43.2269C45.8405 42.6963 45.1952 42.4809 44.6646 42.7464L40.5548 44.8009C40.1909 44.9828 39.9609 45.3548 39.9609 45.7617V51.1328H30.7227V38.1831C30.7227 36.0002 32.3601 34.1898 34.5399 33.9713L34.611 33.9636C36.9411 33.7299 40.7991 32.2168 42.4745 30.5414L44.8874 28.1297C45.5033 27.5136 46.3839 27.3604 47.1213 27.6219C47.1215 27.622 47.1218 27.622 47.122 27.6221C47.1221 27.6221 47.1223 27.6222 47.1224 27.6224C47.9792 27.925 48.5547 28.7392 48.5547 29.6484C48.5547 30.2219 48.3311 30.7612 47.9251 31.1674L42.424 36.6695C42.0045 37.089 42.0046 37.7692 42.4241 38.1887C42.8434 38.6082 43.5238 38.6082 43.9433 38.1886L49.4444 32.6865C50.256 31.8746 50.7031 30.7958 50.7031 29.6484C50.7031 28.0974 49.8648 26.685 48.5547 25.9275V16.7578C48.5547 15.5732 49.5185 14.6094 50.7031 14.6094C51.8878 14.6094 52.8516 15.5732 52.8516 16.7578V31.35C52.8516 33.3154 52.3556 35.2666 51.4172 36.9927C51.1337 37.514 51.3265 38.1661 51.8478 38.4495C52.3689 38.7329 53.0214 38.5403 53.3047 38.0189C54.4138 35.9788 55 33.6728 55 31.35V16.7578C55 14.3885 53.0724 12.4609 50.7031 12.4609Z" fill="white"/>
</svg>
