<svg width="23" height="26" viewBox="0 0 23 26" fill="none" xmlns="http://www.w3.org/2000/svg">
<path d="M19.7689 5.60011C17.9768 3.66005 15.6575 2.42642 13.1404 2.05115L13.8578 1.3003C14.1421 1.00282 14.1421 0.520547 13.8578 0.22307C13.5736 -0.0743566 13.1128 -0.0743566 12.8285 0.22307L10.9853 2.15205C10.7011 2.44948 10.7011 2.9318 10.9853 3.22928L12.8285 5.15826C12.9706 5.307 13.1569 5.38139 13.3431 5.38139C13.5293 5.38139 13.7156 5.307 13.8577 5.15826C14.142 4.86083 14.142 4.37851 13.8577 4.08103L13.4455 3.64964C15.4453 4.0592 17.2793 5.09686 18.7222 6.6589C20.542 8.62901 21.5443 11.2235 21.5443 13.9645C21.5443 19.7608 17.0384 24.4766 11.5 24.4766C5.96158 24.4766 1.45565 19.7608 1.45565 13.9645C1.45565 11.7527 2.10424 9.63697 3.33136 7.84601C4.533 6.09218 6.18954 4.78349 8.12201 4.06148C8.50058 3.92 8.69787 3.4842 8.56273 3.08795C8.4276 2.69176 8.01109 2.48528 7.63252 2.6267C5.41979 3.45348 3.52341 4.95132 2.14835 6.95825C0.742868 9.00962 0 11.4323 0 13.9646C0 17.1794 1.19621 20.2017 3.36828 22.475C5.54036 24.748 8.42823 26 11.5 26C14.5718 26 17.4596 24.7481 19.6317 22.4749C21.8038 20.2017 23 17.1793 23 13.9645C23 10.8263 21.8525 7.85576 19.7689 5.60011Z" fill="#024F6C"/>
<path d="M4.022 13.9649C4.022 18.2803 7.3766 21.7911 11.5 21.7911C15.6233 21.7911 18.9779 18.2803 18.9779 13.9649C18.9779 9.64959 15.6233 6.13867 11.5 6.13867C7.37656 6.13867 4.022 9.64954 4.022 13.9649ZM11.9468 14.6429C10.8991 14.2553 10.2921 13.9498 9.8517 13.5883C9.30971 13.1434 9.06162 12.375 9.20418 11.5831C9.35886 10.724 9.93132 10.0401 10.6982 9.79828C10.7088 9.79493 10.7193 9.79224 10.7298 9.78899V9.48227C10.7298 9.0616 11.0557 8.72055 11.4577 8.72055C11.8596 8.72055 12.1855 9.0616 12.1855 9.48227V9.74049C12.6937 9.86506 13.0484 10.1082 13.1917 10.2203C13.5137 10.4723 13.5796 10.9495 13.3389 11.2865C13.0982 11.6235 12.6422 11.6924 12.3201 11.4406C12.166 11.32 11.7407 11.0606 11.1181 11.2569C10.7502 11.3729 10.6551 11.7518 10.6346 11.8652C10.5943 12.0891 10.6407 12.2999 10.75 12.3896C11.1307 12.7021 11.8138 12.978 12.4318 13.2066C13.5624 13.6248 14.1911 14.7209 13.9962 15.934C13.9005 16.5297 13.6142 17.0823 13.1899 17.4903C12.8982 17.7708 12.5582 17.9703 12.1855 18.0828V18.4475C12.1855 18.8682 11.8596 19.2092 11.4577 19.2092C11.0557 19.2092 10.7298 18.8682 10.7298 18.4475V18.1577C10.2456 18.0981 9.84161 17.9421 9.29821 17.5701C8.96181 17.3398 8.86753 16.8677 9.08758 16.5156C9.30763 16.1635 9.75878 16.0649 10.0951 16.2952C10.5989 16.6401 10.7894 16.6718 11.4528 16.667C12.106 16.6624 12.4849 16.1529 12.5607 15.6815C12.5977 15.4512 12.612 14.889 11.9468 14.6429Z" fill="#024F6C"/>
</svg>
