<svg width="68" height="68" viewBox="0 0 68 68" fill="none" xmlns="http://www.w3.org/2000/svg">
<path d="M63.975 12.4337C62.1638 6.7912 58.3027 2.6501 53.3816 1.07202C44.3089 -1.83737 36.8484 1.90343 34.0003 3.69427C31.1517 1.9033 23.6911 -1.83737 14.619 1.07202C9.69639 2.6505 5.83487 6.79319 4.02424 12.4379C1.64331 19.8605 3.18088 28.269 8.13771 34.9303C10.2927 37.8268 11.7498 41.0199 12.4683 44.4211C12.7875 45.9322 13.0649 47.5948 13.2928 49.3628C13.9772 54.6722 14.9851 58.9337 16.2888 62.0286C17.8504 65.736 19.865 67.7382 22.2767 67.9794C22.414 67.9931 22.5496 67.9998 22.6844 67.9998C25.058 67.9997 27.0418 65.8694 28.5851 61.6588C29.7261 58.5461 30.6255 54.3751 31.1179 49.914C31.393 47.4195 32.0368 45.3997 32.9792 44.0729C33.3167 43.5979 33.8058 43.5467 34.0004 43.5467C34.195 43.5467 34.6841 43.5979 35.0216 44.073C35.9641 45.3997 36.6078 47.4195 36.883 49.9141C37.3753 54.3751 38.2747 58.5462 39.4157 61.659C40.959 65.8697 42.9426 68.0001 45.3164 68C45.4511 68 45.5871 67.9931 45.7242 67.9795C48.1358 67.7383 50.1504 65.7362 51.712 62.0287C53.0156 58.9338 54.0236 54.6724 54.708 49.3629C54.9359 47.5947 55.2134 45.9322 55.5324 44.422C56.2504 41.0235 57.7096 37.8272 59.8695 34.9219C64.822 28.2606 66.3567 19.8537 63.975 12.4337ZM56.68 32.5507C54.1756 35.9195 52.4811 39.6372 51.6438 43.6006C51.3028 45.214 51.0076 46.9819 50.7661 48.8549C49.3731 59.6623 46.7772 63.834 45.3536 64.0218C45.0547 63.916 44.032 62.9329 42.9326 59.6805C42.0008 56.9243 41.2554 53.3011 40.8335 49.4781C40.4793 46.2676 39.614 43.6747 38.2617 41.7712C37.2835 40.3942 35.6905 39.5721 34.0003 39.5721C32.3101 39.5721 30.717 40.3941 29.7387 41.7714C28.3864 43.675 27.5213 46.2679 27.1669 49.4782C26.745 53.3012 25.9997 56.9245 25.068 59.6806C23.9686 62.933 22.9458 63.9161 22.6468 64.022C21.2233 63.8342 18.6274 59.6624 17.2343 48.855C16.9928 46.9824 16.6976 45.2143 16.3565 43.5999C15.5186 39.6333 13.8261 35.9184 11.326 32.5581C7.13351 26.9236 5.8188 19.8558 7.80873 13.652C9.22252 9.24438 12.1471 6.03868 15.8325 4.85692C19.7231 3.60914 23.7349 3.6891 27.7565 5.09425C30.8282 6.16764 32.7557 7.65235 32.77 7.66351L33.9974 8.62308L35.2256 7.66723C35.2447 7.65235 37.1722 6.16764 40.2439 5.09425C44.2655 3.68896 48.2772 3.60914 52.168 4.85692H52.1681C55.8523 6.03828 58.7766 9.24278 60.1908 13.6486C62.1812 19.85 60.8689 26.9163 56.68 32.5507Z" fill="#024F6C"/>
</svg>
