<svg width="25" height="14" viewBox="0 0 25 14" fill="none" xmlns="http://www.w3.org/2000/svg">
<path fill-rule="evenodd" clip-rule="evenodd" d="M17.8223 0.139336C19.9898 0.615279 20.8189 1.81461 21.8584 3.46535H17.8223V0.139336ZM5.15518 3.60396C5.57957 3.60396 5.8876 3.7978 5.8876 4.25082C5.8876 4.63292 5.56087 4.94281 5.15728 4.94389H0.732422C0.327873 4.94389 0 5.25433 0 5.63696C0 6.01978 0.327873 6.33003 0.732422 6.33003H7.32422C7.73258 6.33003 8.0595 6.64011 8.0595 7.0231C8.0595 7.40591 7.73163 7.71617 7.32708 7.71617H0.732422C0.327873 7.71617 0 8.02643 0 8.40924C0 8.79205 0.327873 9.10231 0.732422 9.10231H2.34375V11.1815C2.34375 11.5643 2.67162 11.8746 3.07617 11.8746H4.54845C4.81091 13.0979 5.95322 14 7.2998 14C8.64639 14 9.7887 13.0979 10.0512 11.8746H17.4879C17.7504 13.0979 18.8927 14 20.2393 14C21.5858 14 22.7282 13.0979 22.9906 11.8746H24.2676C24.6721 11.8746 25 11.5643 25 11.1815V7.0231C25 4.98956 22.7333 4.85455 22.7312 4.85148H17.0898C16.6853 4.85148 16.3574 4.54123 16.3574 4.15842V0H3.07617C2.67162 0 2.34375 0.310257 2.34375 0.693069V2.21782H1.46484C1.0603 2.21782 0.732422 2.52808 0.732422 2.91089C0.732422 3.2937 1.0603 3.60396 1.46484 3.60396H5.15518ZM21.1887 10.4448C21.7131 10.9409 21.7131 11.7457 21.1887 12.2419C20.3453 13.04 18.8965 12.4722 18.8965 11.3432C18.8965 10.2145 20.3453 9.64666 21.1887 10.4448ZM8.24928 10.4448C8.77361 10.9409 8.77361 11.7457 8.24928 12.2419C7.40585 13.04 5.95703 12.4722 5.95703 11.3432C5.95703 10.2145 7.40585 9.64666 8.24928 10.4448Z" fill="#024F6C"/>
</svg>
